{
	"asset":{
		"generator":"Khronos glTF Blender I/O v4.1.62",
		"version":"2.0"
	},
	"scene":0,
	"scenes":[
		{
			"name":"Scene",
			"nodes":[
				0
			]
		}
	],
	"nodes":[
		{
			"mesh":0,
			"name":"Cube",
			"scale":[
				1,
				1,
				3.5643258094787598
			]
		}
	],
	"materials":[
		{
			"doubleSided":true,
			"name":"Material",
			"pbrMetallicRoughness":{
				"baseColorFactor":[
					0.800000011920929,
					0.800000011920929,
					0.800000011920929,
					1
				],
				"metallicFactor":0,
				"roughnessFactor":0.5
			}
		}
	],
	"meshes":[
		{
			"name":"Cube",
			"primitives":[
				{
					"attributes":{
						"POSITION":0,
						"NORMAL":1,
						"TEXCOORD_0":2
					},
					"indices":3,
					"material":0
				}
			]
		}
	],
	"accessors":[
		{
			"bufferView":0,
			"componentType":5126,
			"count":5730,
			"max":[
				1.0878911018371582,
				3.1756365299224854,
				0.6260213851928711
			],
			"min":[
				-1.126030445098877,
				-0.5716598629951477,
				-1.4177860021591187
			],
			"type":"VEC3"
		},
		{
			"bufferView":1,
			"componentType":5126,
			"count":5730,
			"type":"VEC3"
		},
		{
			"bufferView":2,
			"componentType":5126,
			"count":5730,
			"type":"VEC2"
		},
		{
			"bufferView":3,
			"componentType":5123,
			"count":9336,
			"type":"SCALAR"
		}
	],
	"bufferViews":[
		{
			"buffer":0,
			"byteLength":68760,
			"byteOffset":0,
			"target":34962
		},
		{
			"buffer":0,
			"byteLength":68760,
			"byteOffset":68760,
			"target":34962
		},
		{
			"buffer":0,
			"byteLength":45840,
			"byteOffset":137520,
			"target":34962
		},
		{
			"buffer":0,
			"byteLength":18672,
			"byteOffset":183360,
			"target":34963
		}
	],
	"buffers":[
		{
			"byteLength":202032,
			"uri":"ship.bin"
		}
	]
}
